<svg width="36" height="37" viewBox="0 0 36 37" fill="none" xmlns="http://www.w3.org/2000/svg">
<path d="M7.3125 16.25H1.6875C0.703125 16.25 0 17.0234 0 17.9375V34.8125C0 35.7969 0.703125 36.5 1.6875 36.5H7.3125C8.22656 36.5 9 35.7969 9 34.8125V17.9375C9 17.0234 8.22656 16.25 7.3125 16.25ZM4.5 33.6875C3.51562 33.6875 2.8125 32.9844 2.8125 32C2.8125 31.0859 3.51562 30.3125 4.5 30.3125C5.41406 30.3125 6.1875 31.0859 6.1875 32C6.1875 32.9844 5.41406 33.6875 4.5 33.6875ZM27 6.26562C27 1.0625 23.625 0.5 21.9375 0.5C20.4609 0.5 19.8281 3.3125 19.5469 4.57812C19.125 6.125 18.7734 7.67188 17.7188 8.72656C15.4688 11.0469 14.2734 13.9297 11.4609 16.6719C11.3203 16.8828 11.25 17.0938 11.25 17.3047V32.3516C11.25 32.7734 11.6016 33.125 12.0234 33.1953C13.1484 33.1953 14.625 33.8281 15.75 34.3203C18 35.3047 20.7422 36.5 24.1172 36.5H24.3281C27.3516 36.5 30.9375 36.5 32.3438 34.4609C32.9766 33.6172 33.1172 32.5625 32.7656 31.2969C33.9609 30.1016 34.5234 27.8516 33.9609 26.0234C35.1562 24.4062 35.2969 22.0859 34.5938 20.4688C35.4375 19.625 36 18.2891 35.9297 17.0234C35.9297 14.8438 34.1016 12.875 31.7812 12.875H24.6094C25.1719 10.9062 27 9.21875 27 6.26562Z" fill="#FFBD12"/>
</svg>
